<?xml version="1.0" encoding="UTF-8"?>
<svg width="1600" height="1000" xmlns="http://www.w3.org/2000/svg">
  <defs>
    <!-- Gradients -->
    <linearGradient id="useCaseGrad" x1="0%" y1="0%" x2="100%" y2="0%">
      <stop offset="0%" style="stop-color:#2196F3;stop-opacity:1" />
      <stop offset="100%" style="stop-color:#1976D2;stop-opacity:1" />
    </linearGradient>
    
    <!-- Shadows -->
    <filter id="shadow" x="-20%" y="-20%" width="140%" height="140%">
      <feDropShadow dx="2" dy="2" stdDeviation="2" flood-color="#000000" flood-opacity="0.2"/>
    </filter>
  </defs>
  
  <!-- Background -->
  <rect width="1600" height="1000" fill="#FFFFFF"/>
  
  <!-- Title -->
  <text x="800" y="50" text-anchor="middle" fill="#374151" font-family="Arial, sans-serif" font-size="28" font-weight="bold">
    Pharmacy Management System - Use Case Diagram
  </text>
  
  <!-- Admin Actor (Left) -->
  <g transform="translate(100, 150)">
    <!-- Stick Figure -->
    <circle cx="30" cy="20" r="10" fill="#000000"/>
    <line x1="30" y1="30" x2="30" y2="80" stroke="#000000" stroke-width="4"/>
    <line x1="30" y1="45" x2="10" y2="65" stroke="#000000" stroke-width="4"/>
    <line x1="30" y1="45" x2="50" y2="65" stroke="#000000" stroke-width="4"/>
    <line x1="30" y1="80" x2="15" y2="110" stroke="#000000" stroke-width="4"/>
    <line x1="30" y1="80" x2="45" y2="110" stroke="#000000" stroke-width="4"/>
    <!-- Actor Label -->
    <text x="30" y="140" text-anchor="middle" fill="#374151" font-family="Arial, sans-serif" font-size="16" font-weight="bold">
      Admin
    </text>
  </g>
  
  <!-- Pharmacist Actor (Top Right) -->
  <g transform="translate(1400, 150)">
    <!-- Stick Figure -->
    <circle cx="30" cy="20" r="10" fill="#000000"/>
    <line x1="30" y1="30" x2="30" y2="80" stroke="#000000" stroke-width="4"/>
    <line x1="30" y1="45" x2="10" y2="65" stroke="#000000" stroke-width="4"/>
    <line x1="30" y1="45" x2="50" y2="65" stroke="#000000" stroke-width="4"/>
    <line x1="30" y1="80" x2="15" y2="110" stroke="#000000" stroke-width="4"/>
    <line x1="30" y1="80" x2="45" y2="110" stroke="#000000" stroke-width="4"/>
    <!-- Actor Label -->
    <text x="30" y="140" text-anchor="middle" fill="#374151" font-family="Arial, sans-serif" font-size="16" font-weight="bold">
      Pharmacist
    </text>
  </g>
  
  <!-- Customer Actor (Bottom Right) -->
  <g transform="translate(1400, 650)">
    <!-- Stick Figure -->
    <circle cx="30" cy="20" r="10" fill="#000000"/>
    <line x1="30" y1="30" x2="30" y2="80" stroke="#000000" stroke-width="4"/>
    <line x1="30" y1="45" x2="10" y2="65" stroke="#000000" stroke-width="4"/>
    <line x1="30" y1="45" x2="50" y2="65" stroke="#000000" stroke-width="4"/>
    <line x1="30" y1="80" x2="15" y2="110" stroke="#000000" stroke-width="4"/>
    <line x1="30" y1="80" x2="45" y2="110" stroke="#000000" stroke-width="4"/>
    <!-- Actor Label -->
    <text x="30" y="140" text-anchor="middle" fill="#374151" font-family="Arial, sans-serif" font-size="16" font-weight="bold">
      Customer
    </text>
  </g>
  
  <!-- Admin Use Cases (Left Column) -->
  <rect x="250" y="100" width="200" height="45" rx="6" fill="url(#useCaseGrad)" filter="url(#shadow)"/>
  <text x="350" y="128" text-anchor="middle" fill="white" font-family="Arial, sans-serif" font-size="13" font-weight="bold">
    Manage User Accounts
  </text>
  
  <rect x="250" y="160" width="200" height="45" rx="6" fill="url(#useCaseGrad)" filter="url(#shadow)"/>
  <text x="350" y="188" text-anchor="middle" fill="white" font-family="Arial, sans-serif" font-size="13" font-weight="bold">
    Manage Drug Inventory
  </text>
  
  <rect x="250" y="220" width="200" height="45" rx="6" fill="url(#useCaseGrad)" filter="url(#shadow)"/>
  <text x="350" y="248" text-anchor="middle" fill="white" font-family="Arial, sans-serif" font-size="13" font-weight="bold">
    View System Analytics
  </text>
  
  <rect x="250" y="280" width="200" height="45" rx="6" fill="url(#useCaseGrad)" filter="url(#shadow)"/>
  <text x="350" y="308" text-anchor="middle" fill="white" font-family="Arial, sans-serif" font-size="13" font-weight="bold">
    Generate Reports
  </text>
  
  <rect x="250" y="340" width="200" height="45" rx="6" fill="url(#useCaseGrad)" filter="url(#shadow)"/>
  <text x="350" y="368" text-anchor="middle" fill="white" font-family="Arial, sans-serif" font-size="13" font-weight="bold">
    Monitor Sales Performance
  </text>
  
  <rect x="250" y="400" width="200" height="45" rx="6" fill="url(#useCaseGrad)" filter="url(#shadow)"/>
  <text x="350" y="428" text-anchor="middle" fill="white" font-family="Arial, sans-serif" font-size="13" font-weight="bold">
    Login / Logout
  </text>
  
  <!-- Pharmacist Use Cases (Top Right Column) -->
  <rect x="1150" y="100" width="200" height="45" rx="6" fill="url(#useCaseGrad)" filter="url(#shadow)"/>
  <text x="1250" y="128" text-anchor="middle" fill="white" font-family="Arial, sans-serif" font-size="13" font-weight="bold">
    Process Sales Transactions
  </text>
  
  <rect x="1150" y="160" width="200" height="45" rx="6" fill="url(#useCaseGrad)" filter="url(#shadow)"/>
  <text x="1250" y="188" text-anchor="middle" fill="white" font-family="Arial, sans-serif" font-size="13" font-weight="bold">
    Manage Drug Stock
  </text>
  
  <rect x="1150" y="220" width="200" height="45" rx="6" fill="url(#useCaseGrad)" filter="url(#shadow)"/>
  <text x="1250" y="248" text-anchor="middle" fill="white" font-family="Arial, sans-serif" font-size="13" font-weight="bold">
    View Sales Dashboard
  </text>
  
  <rect x="1150" y="280" width="200" height="45" rx="6" fill="url(#useCaseGrad)" filter="url(#shadow)"/>
  <text x="1250" y="308" text-anchor="middle" fill="white" font-family="Arial, sans-serif" font-size="13" font-weight="bold">
    Check Drug Availability
  </text>
  
  <rect x="1150" y="340" width="200" height="45" rx="6" fill="url(#useCaseGrad)" filter="url(#shadow)"/>
  <text x="1250" y="368" text-anchor="middle" fill="white" font-family="Arial, sans-serif" font-size="13" font-weight="bold">
    Process Refunds
  </text>
  
  <rect x="1150" y="400" width="200" height="45" rx="6" fill="url(#useCaseGrad)" filter="url(#shadow)"/>
  <text x="1250" y="428" text-anchor="middle" fill="white" font-family="Arial, sans-serif" font-size="13" font-weight="bold">
    Login / Logout
  </text>
  
  <!-- Customer Use Cases (Bottom Right Column) -->
  <rect x="1150" y="600" width="200" height="45" rx="6" fill="url(#useCaseGrad)" filter="url(#shadow)"/>
  <text x="1250" y="628" text-anchor="middle" fill="white" font-family="Arial, sans-serif" font-size="13" font-weight="bold">
    Browse Drug Catalog
  </text>
  
  <rect x="1150" y="660" width="200" height="45" rx="6" fill="url(#useCaseGrad)" filter="url(#shadow)"/>
  <text x="1250" y="688" text-anchor="middle" fill="white" font-family="Arial, sans-serif" font-size="13" font-weight="bold">
    Search for Medications
  </text>
  
  <rect x="1150" y="720" width="200" height="45" rx="6" fill="url(#useCaseGrad)" filter="url(#shadow)"/>
  <text x="1250" y="748" text-anchor="middle" fill="white" font-family="Arial, sans-serif" font-size="13" font-weight="bold">
    View Drug Information
  </text>
  
  <rect x="1150" y="780" width="200" height="45" rx="6" fill="url(#useCaseGrad)" filter="url(#shadow)"/>
  <text x="1250" y="808" text-anchor="middle" fill="white" font-family="Arial, sans-serif" font-size="13" font-weight="bold">
    Check Drug Prices
  </text>
  
  <!-- Shared Use Cases (Center) -->
  <rect x="700" y="250" width="200" height="45" rx="6" fill="url(#useCaseGrad)" filter="url(#shadow)"/>
  <text x="800" y="278" text-anchor="middle" fill="white" font-family="Arial, sans-serif" font-size="13" font-weight="bold">
    Create Profile
  </text>
  
  <rect x="700" y="310" width="200" height="45" rx="6" fill="url(#useCaseGrad)" filter="url(#shadow)"/>
  <text x="800" y="338" text-anchor="middle" fill="white" font-family="Arial, sans-serif" font-size="13" font-weight="bold">
    View Purchase History
  </text>
  
  <rect x="700" y="370" width="200" height="45" rx="6" fill="url(#useCaseGrad)" filter="url(#shadow)"/>
  <text x="800" y="398" text-anchor="middle" fill="white" font-family="Arial, sans-serif" font-size="13" font-weight="bold">
    Manage Account Settings
  </text>
  
  <!-- Connection Lines -->
  <defs>
    <marker id="arrowhead" markerWidth="10" markerHeight="7" refX="9" refY="3.5" orient="auto">
      <polygon points="0 0, 10 3.5, 0 7" fill="#374151"/>
    </marker>
  </defs>
  
  <!-- Admin Connections -->
  <line x1="130" y1="200" x2="250" y2="122" stroke="#374151" stroke-width="2" marker-end="url(#arrowhead)"/>
  <line x1="130" y1="200" x2="250" y2="182" stroke="#374151" stroke-width="2" marker-end="url(#arrowhead)"/>
  <line x1="130" y1="200" x2="250" y2="242" stroke="#374151" stroke-width="2" marker-end="url(#arrowhead)"/>
  <line x1="130" y1="200" x2="250" y2="302" stroke="#374151" stroke-width="2" marker-end="url(#arrowhead)"/>
  <line x1="130" y1="200" x2="250" y2="362" stroke="#374151" stroke-width="2" marker-end="url(#arrowhead)"/>
  <line x1="130" y1="200" x2="250" y2="422" stroke="#374151" stroke-width="2" marker-end="url(#arrowhead)"/>
  
  <!-- Pharmacist Connections -->
  <line x1="1430" y1="200" x2="1150" y2="122" stroke="#374151" stroke-width="2" marker-end="url(#arrowhead)"/>
  <line x1="1430" y1="200" x2="1150" y2="182" stroke="#374151" stroke-width="2" marker-end="url(#arrowhead)"/>
  <line x1="1430" y1="200" x2="1150" y2="242" stroke="#374151" stroke-width="2" marker-end="url(#arrowhead)"/>
  <line x1="1430" y1="200" x2="1150" y2="302" stroke="#374151" stroke-width="2" marker-end="url(#arrowhead)"/>
  <line x1="1430" y1="200" x2="1150" y2="362" stroke="#374151" stroke-width="2" marker-end="url(#arrowhead)"/>
  <line x1="1430" y1="200" x2="1150" y2="422" stroke="#374151" stroke-width="2" marker-end="url(#arrowhead)"/>
  
  <!-- Customer Connections -->
  <line x1="1430" y1="700" x2="1150" y2="622" stroke="#374151" stroke-width="2" marker-end="url(#arrowhead)"/>
  <line x1="1430" y1="700" x2="1150" y2="682" stroke="#374151" stroke-width="2" marker-end="url(#arrowhead)"/>
  <line x1="1430" y1="700" x2="1150" y2="742" stroke="#374151" stroke-width="2" marker-end="url(#arrowhead)"/>
  <line x1="1430" y1="700" x2="1150" y2="802" stroke="#374151" stroke-width="2" marker-end="url(#arrowhead)"/>
  
  <!-- Shared Use Case Connections -->
  <line x1="130" y1="200" x2="700" y2="272" stroke="#374151" stroke-width="2" marker-end="url(#arrowhead)"/>
  <line x1="1430" y1="200" x2="900" y2="272" stroke="#374151" stroke-width="2" marker-end="url(#arrowhead)"/>
  <line x1="1430" y1="700" x2="900" y2="272" stroke="#374151" stroke-width="2" marker-end="url(#arrowhead)"/>
  
  <line x1="130" y1="200" x2="700" y2="332" stroke="#374151" stroke-width="2" marker-end="url(#arrowhead)"/>
  <line x1="1430" y1="200" x2="900" y2="332" stroke="#374151" stroke-width="2" marker-end="url(#arrowhead)"/>
  <line x1="1430" y1="700" x2="900" y2="332" stroke="#374151" stroke-width="2" marker-end="url(#arrowhead)"/>
  
  <line x1="130" y1="200" x2="700" y2="392" stroke="#374151" stroke-width="2" marker-end="url(#arrowhead)"/>
  <line x1="1430" y1="200" x2="900" y2="392" stroke="#374151" stroke-width="2" marker-end="url(#arrowhead)"/>
  <line x1="1430" y1="700" x2="900" y2="392" stroke="#374151" stroke-width="2" marker-end="url(#arrowhead)"/>
  
  <!-- Legend -->
  <rect x="100" y="850" width="400" height="120" rx="8" fill="white" stroke="#E5E7EB" stroke-width="2"/>
  <text x="300" y="875" text-anchor="middle" fill="#374151" font-family="Arial, sans-serif" font-size="16" font-weight="bold">
    System Overview
  </text>
  
  <text x="120" y="900" fill="#374151" font-family="Arial, sans-serif" font-size="12">
    • Admin: System management and oversight
  </text>
  <text x="120" y="920" fill="#374151" font-family="Arial, sans-serif" font-size="12">
    • Pharmacist: Daily operations and sales
  </text>
  <text x="120" y="940" fill="#374151" font-family="Arial, sans-serif" font-size="12">
    • Customer: Drug browsing and information
  </text>
  <text x="120" y="960" fill="#374151" font-family="Arial, sans-serif" font-size="12">
    • Shared: Common functionalities across roles
  </text>
</svg>
